<svg xmlns="http://www.w3.org/2000/svg" xmlns:xlink="http://www.w3.org/1999/xlink" width="1080" zoomAndPan="magnify" viewBox="0 0 810 809.999993" height="1080" preserveAspectRatio="xMidYMid meet" version="1.0"><defs><clipPath id="c21c988850"><path d="M 272 245 L 565.472656 245 L 565.472656 542.453125 L 272 542.453125 Z M 272 245 " clip-rule="nonzero"/></clipPath><clipPath id="508f473e01"><path d="M 244.472656 218.46875 L 541 218.46875 L 541 522 L 244.472656 522 Z M 244.472656 218.46875 " clip-rule="nonzero"/></clipPath></defs><g clip-path="url(#c21c988850)"><path fill="#13c2b6" d="M 443.769531 245.730469 C 424.429688 243.832031 385.339844 246.226562 353.585938 263.59375 C 318.917969 282.554688 292.035156 317.355469 285.421875 333.917969 C 240.921875 445.355469 315.429688 589.390625 469.316406 527.621094 C 520.222656 507.1875 588.824219 419.171875 557.734375 322.410156 C 540.574219 269.019531 490.519531 250.320312 443.769531 245.730469 " fill-opacity="1" fill-rule="nonzero"/></g><g clip-path="url(#508f473e01)"><path fill="#173e81" d="M 373.019531 521.238281 C 339.457031 520.871094 310.023438 509.925781 285.386719 486.910156 C 272.613281 474.953125 262.953125 460.804688 256.011719 444.730469 C 251.550781 434.433594 248.707031 423.703125 246.535156 412.761719 C 244.425781 402.128906 244.273438 391.398438 244.609375 380.636719 C 244.976562 368.71875 247.175781 357.070312 249.808594 345.488281 C 253.382812 329.75 260.167969 315.378906 268.363281 301.683594 C 281.78125 279.15625 299.664062 260.722656 321.671875 246.417969 C 334.78125 237.917969 349.027344 231.804688 363.976562 227.34375 C 372.75 224.714844 381.550781 222.148438 390.597656 220.617188 C 413.617188 216.679688 436.265625 217.992188 458.273438 225.910156 C 489.574219 237.15625 512.464844 258.003906 527.257812 287.773438 C 532.179688 297.707031 535.816406 308.132812 537.894531 319.011719 C 540.28125 331.421875 541.167969 343.980469 540.128906 356.605469 C 538.414062 377.390625 532.578125 397.046875 523.253906 415.628906 C 518.945312 424.1875 514.023438 432.382812 508.125 439.957031 C 506.839844 441.574219 505.710938 443.351562 504.609375 445.089844 C 491.804688 465.050781 475.480469 481.617188 456.011719 495.066406 C 436.476562 508.542969 414.871094 516.707031 391.421875 519.976562 C 385.308594 520.773438 379.195312 521.175781 373.019531 521.238281 M 526.25 356.972656 C 526.308594 347.957031 525.792969 340.039062 524.355469 331.964844 C 523.378906 326.4375 522.488281 320.871094 520.929688 315.488281 C 519.28125 309.773438 517.140625 304.214844 514.820312 298.734375 C 509.042969 285.230469 501.066406 273.125 490.851562 262.511719 C 471.902344 242.855469 448.882812 231.089844 421.984375 226.8125 C 409.363281 224.796875 396.675781 224.796875 384.023438 226.476562 C 375.710938 227.609375 367.609375 229.410156 359.816406 232.746094 C 335.851562 242.953125 315.21875 257.78125 298.070312 277.371094 C 290.214844 286.355469 283.550781 296.167969 277.558594 306.496094 C 271.539062 316.921875 267.628906 328.199219 263.53125 339.355469 C 260.257812 348.28125 258.914062 357.726562 257.753906 367.136719 C 256.257812 379.390625 257.054688 391.621094 258.730469 403.726562 C 260.871094 418.859375 265.886719 433.128906 273.585938 446.367188 C 293.820312 481.148438 324.265625 500.46875 363.972656 505.453125 C 378.613281 507.289062 393.195312 506.246094 407.621094 503.191406 C 422.539062 500.015625 436.566406 494.542969 449.925781 487.179688 C 465.179688 478.777344 478.929688 468.5 490.792969 455.695312 C 495.195312 450.925781 499.660156 446.15625 502.957031 440.558594 C 518.152344 414.808594 526.128906 386.988281 526.25 356.972656 " fill-opacity="1" fill-rule="nonzero"/></g><path fill="#173e81" d="M 401.726562 296.515625 C 381.886719 312.320312 362.996094 328.730469 342.304688 342.699219 C 341.386719 342.175781 341.539062 341.503906 341.726562 340.863281 C 342.703125 337.257812 343.621094 333.617188 344.722656 330.042969 C 344.964844 329.25 345.730469 328.453125 346.433594 327.929688 C 359.851562 317.871094 373.332031 307.910156 386.71875 297.820312 C 393.382812 292.804688 399.894531 287.582031 406.464844 282.417969 C 407.351562 281.714844 408.144531 280.917969 409.03125 280.1875 C 410.285156 279.117188 411.570312 279.574219 411.84375 281.253906 C 411.933594 281.953125 411.964844 282.722656 411.84375 283.425781 C 410.558594 292.351562 409.214844 301.246094 407.898438 310.167969 C 404.539062 333.035156 400.230469 355.742188 396.5625 378.578125 C 394.878906 389.035156 393.597656 399.519531 392.832031 410.0625 C 392.738281 411.4375 392.585938 412.816406 392.433594 414.4375 C 393.566406 414.4375 394.480469 414.464844 395.367188 414.4375 C 409.613281 413.792969 423.855469 413.152344 438.128906 412.480469 C 444.855469 412.175781 451.578125 411.777344 458.304688 411.441406 C 458.792969 411.414062 459.433594 411.441406 459.769531 411.71875 C 460.933594 412.609375 460.871094 413.617188 459.617188 414.445312 C 456.070312 416.734375 452.523438 418.996094 448.949219 421.226562 C 448.429688 421.5625 447.695312 421.683594 447.054688 421.71875 C 440.113281 422.113281 433.175781 422.449219 426.269531 422.882812 C 416.152344 423.496094 406.003906 424.167969 395.886719 424.808594 C 384.546875 425.539062 373.234375 426.367188 361.894531 426.980469 C 350.679688 427.59375 339.460938 427.988281 328.242188 428.480469 C 327.292969 428.511719 326.378906 428.511719 325.429688 428.449219 C 324.421875 428.359375 324.148438 427.75 324.726562 426.949219 C 325.03125 426.523438 325.460938 426.160156 325.828125 425.785156 C 328.121094 423.644531 330.472656 421.570312 332.734375 419.367188 C 333.714844 418.421875 334.785156 417.964844 336.097656 417.867188 C 344.6875 417.257812 353.304688 416.554688 361.894531 416.03125 C 370.207031 415.539062 378.523438 415.203125 386.867188 414.808594 C 387.511719 414.777344 388.152344 414.691406 388.945312 414.621094 C 389.191406 412.085938 389.40625 409.703125 389.617188 407.316406 C 390.65625 395.519531 391.695312 383.71875 392.769531 371.953125 C 393.714844 361.773438 394.570312 351.5625 395.703125 341.386719 C 396.679688 332.550781 397.933594 323.75 399.125 314.945312 C 399.890625 309.445312 400.777344 303.976562 401.601562 298.5 C 401.664062 297.945312 401.664062 297.433594 401.726562 296.515625 " fill-opacity="1" fill-rule="nonzero"/></svg>