<svg xmlns="http://www.w3.org/2000/svg" xmlns:xlink="http://www.w3.org/1999/xlink" width="1080" zoomAndPan="magnify" viewBox="0 0 810 809.999993" height="1080" preserveAspectRatio="xMidYMid meet" version="1.0"><defs><clipPath id="a8537f5b22"><path d="M 264 274 L 564.839844 274 L 564.839844 567 L 264 567 Z M 264 274 " clip-rule="nonzero"/></clipPath><clipPath id="ee324bfb5b"><path d="M 245.160156 243 L 556 243 L 556 561 L 245.160156 561 Z M 245.160156 243 " clip-rule="nonzero"/></clipPath></defs><g clip-path="url(#a8537f5b22)"><path fill="#13c2b6" d="M 405.605469 275.824219 C 372.761719 279.644531 324.28125 305.441406 299.929688 336.949219 C 238.234375 416.789062 251.613281 546.847656 379.800781 565.375 C 433.472656 573.136719 576.984375 559.949219 564.011719 372.109375 C 561.105469 329.945312 495.730469 265.347656 405.605469 275.824219 " fill-opacity="1" fill-rule="nonzero"/></g><g clip-path="url(#ee324bfb5b)"><path fill="#173e81" d="M 245.164062 419.949219 C 245.066406 405.164062 247.40625 390.730469 250.710938 376.359375 C 254.785156 358.652344 262.519531 342.582031 272.007812 327.34375 C 285.867188 305.078125 303.925781 286.800781 325.929688 272.496094 C 339.820312 263.480469 354.863281 257.003906 370.679688 252.289062 C 379.820312 249.5625 388.996094 246.902344 398.425781 245.265625 C 422.578125 241.128906 446.347656 242.476562 469.441406 250.785156 C 502.351562 262.621094 526.441406 284.53125 541.964844 315.871094 C 547.128906 326.292969 550.917969 337.234375 553.097656 348.652344 C 556.304688 365.332031 556.785156 382.074219 554.15625 398.914062 C 550.242188 423.644531 541.324219 446.417969 527.59375 467.367188 C 526.121094 469.613281 524.484375 471.695312 522.976562 473.914062 C 519.800781 478.53125 516.753906 483.277344 513.449219 487.804688 C 498.503906 508.464844 480.378906 525.683594 458.5 538.839844 C 444.707031 547.148438 429.824219 552.984375 414.171875 556.703125 C 400.765625 559.882812 387.164062 561.324219 373.402344 560.621094 C 341.9375 559.046875 314.191406 548.113281 290.613281 527.101562 C 276.019531 514.109375 265.046875 498.488281 257.285156 480.5625 C 252.605469 469.785156 249.589844 458.492188 247.308594 447.011719 C 245.582031 438.039062 245.195312 429.023438 245.164062 419.949219 M 541.136719 387.644531 C 540.753906 381.675781 540.527344 375.679688 539.949219 369.710938 C 539.148438 361.339844 537.640625 353 535.363281 344.949219 C 532.1875 333.6875 527.730469 322.910156 521.636719 312.902344 C 500.851562 278.710938 470.699219 258.210938 431.148438 251.734375 C 417.964844 249.585938 404.714844 249.652344 391.5 251.414062 C 384.605469 252.34375 377.773438 253.558594 371.195312 256 C 360.835938 259.886719 350.988281 264.757812 341.652344 270.660156 C 306.589844 292.792969 281.730469 323.074219 268.003906 362.332031 C 267.070312 364.964844 265.792969 367.460938 264.957031 370.09375 C 262.070312 379.429688 260.273438 388.992188 259.085938 398.679688 C 257.484375 411.734375 258.316406 424.757812 260.179688 437.683594 C 262.363281 453.082031 267.527344 467.578125 275.09375 481.148438 C 288.054688 504.40625 306.433594 521.980469 330.683594 533.117188 C 358.75 546.015625 387.941406 548.003906 417.902344 541.425781 C 432.976562 538.121094 447.152344 532.441406 460.660156 525.003906 C 477.242188 515.894531 492.125 504.632812 504.863281 490.617188 C 509.09375 485.933594 513.363281 481.25 516.601562 475.769531 C 523.433594 464.1875 528.917969 452 532.960938 439.164062 C 538.3125 422.476562 540.914062 405.289062 541.136719 387.644531 " fill-opacity="1" fill-rule="nonzero"/></g><path fill="#173e81" d="M 423.125 447.210938 C 423.480469 446.921875 423.898438 446.664062 424.21875 446.308594 C 427.425781 442.777344 430.699219 439.285156 433.746094 435.628906 C 435.511719 433.484375 437.050781 431.070312 438.367188 428.605469 C 444.71875 416.667969 449.175781 404.101562 451.261719 390.722656 C 452.769531 381.101562 452.929688 371.476562 450.328125 361.984375 C 446.671875 348.703125 439.390625 338.121094 427.203125 331.253906 C 420.851562 327.691406 413.890625 326.125 406.703125 325.417969 C 398.554688 324.621094 390.636719 325.867188 382.777344 327.886719 C 364.78125 332.570312 348.933594 341.261719 335.113281 353.675781 C 333.636719 354.992188 332.128906 356.242188 330.621094 357.527344 C 330.269531 357.847656 329.847656 358.234375 329.402344 358.328125 C 328.988281 358.421875 328.410156 358.296875 328.085938 358.035156 C 327.863281 357.839844 327.828125 357.269531 327.925781 356.886719 C 328.054688 356.441406 328.34375 355.984375 328.601562 355.601562 C 330.8125 352.421875 333.023438 349.28125 335.242188 346.109375 C 335.464844 345.757812 335.753906 345.4375 336.042969 345.148438 C 342.9375 338.953125 349.804688 332.703125 357.628906 327.699219 C 368.761719 320.613281 380.917969 316.148438 393.746094 313.390625 C 402.664062 311.496094 411.582031 311.113281 420.628906 312.5625 C 444.71875 316.375 458.734375 333.699219 463.324219 352.335938 C 466.210938 364.136719 465.601562 375.84375 462.390625 387.488281 C 458.640625 401.1875 453.15625 414.117188 445.070312 425.855469 C 439.492188 433.9375 433.746094 441.925781 428.101562 449.976562 C 427.90625 450.265625 427.714844 450.554688 427.554688 450.773438 C 427.652344 451 427.652344 451.15625 427.746094 451.25 C 432.847656 455.738281 437.625 460.617188 443.722656 463.859375 C 447.089844 465.652344 450.617188 467 454.4375 467.484375 C 459.855469 468.160156 464.539062 466.554688 468.292969 462.542969 C 468.773438 462.027344 469.128906 461.425781 469.417969 460.78125 C 470.3125 458.730469 471.117188 456.648438 472.078125 454.625 C 473.136719 452.410156 474.292969 450.234375 475.414062 448.046875 C 475.707031 447.5 475.960938 446.859375 476.378906 446.410156 C 476.699219 446.058594 477.34375 445.707031 477.695312 445.800781 C 478.109375 445.925781 478.65625 446.570312 478.625 446.953125 C 478.59375 448.425781 478.527344 449.9375 478.175781 451.316406 C 477.632812 453.335938 476.988281 455.355469 476.058594 457.25 C 474.070312 461.355469 472.046875 465.464844 469.804688 469.4375 C 468.394531 471.933594 466.757812 474.316406 464.898438 476.492188 C 459.671875 482.648438 452.96875 484.480469 445.203125 482.648438 C 438.5625 481.074219 432.789062 477.871094 427.625 473.507812 C 424.449219 470.84375 421.371094 468.089844 418.257812 465.363281 C 417.648438 464.816406 416.976562 464.308594 416.238281 463.695312 C 415.535156 464.367188 414.953125 464.949219 414.378906 465.558594 C 401.453125 478.933594 385.738281 487.117188 367.613281 490.902344 C 359.109375 492.664062 350.738281 492.089844 342.496094 489.523438 C 334.507812 487.023438 328.351562 482.269531 324.628906 474.636719 C 322.03125 469.277344 321.617188 463.632812 323.574219 458.082031 C 325.625 452.175781 327.804688 446.308594 330.46875 440.664062 C 334.765625 431.585938 342.398438 426.355469 352.054688 424.304688 C 366.328125 421.320312 380.21875 423.183594 393.597656 428.792969 C 403.605469 432.957031 412.488281 438.925781 420.925781 445.660156 C 421.46875 446.105469 422.019531 446.53125 422.5625 446.976562 C 422.742188 447.117188 422.902344 447.148438 423.125 447.210938 M 410.296875 459.042969 C 409.589844 458.402344 409.238281 458.082031 408.851562 457.789062 C 402.242188 452.785156 395.253906 448.300781 387.648438 444.894531 C 376.035156 439.691406 363.972656 437.742188 351.339844 439.472656 C 345.019531 440.34375 339.308594 442.683594 334.496094 446.945312 C 330.519531 450.4375 330.074219 451.753906 331.515625 456.859375 C 333.695312 464.589844 338.761719 469.882812 346.140625 472.804688 C 353.902344 475.878906 361.988281 476.84375 370.296875 475.558594 C 382.132812 473.765625 393.105469 469.65625 403.335938 463.5 C 405.613281 462.160156 407.792969 460.648438 410.296875 459.042969 " fill-opacity="1" fill-rule="nonzero"/></svg>