<svg xmlns="http://www.w3.org/2000/svg" xmlns:xlink="http://www.w3.org/1999/xlink" width="1080" zoomAndPan="magnify" viewBox="0 0 810 809.999993" height="1080" preserveAspectRatio="xMidYMid meet" version="1.0"><path fill="#13c2b6" d="M 508.054688 307.882812 C 488.941406 283.335938 437.910156 261.039062 380.308594 277.316406 C 336.492188 289.699219 300.183594 324.171875 289.339844 341.300781 C 255.5 394.746094 254.34375 469.015625 297.894531 518.304688 C 315.652344 538.394531 346.015625 560.519531 380.414062 563.78125 C 414.320312 566.996094 462.222656 558.230469 509.496094 514.503906 C 543.816406 482.742188 564.160156 432.382812 537.523438 354.554688 C 529.972656 332.5 517.371094 319.859375 508.054688 307.882812 " fill-opacity="1" fill-rule="nonzero"/><path fill="#173e81" d="M 246.058594 410.566406 C 246.085938 399.328125 248.433594 386.171875 251.335938 373.042969 C 254.296875 359.738281 259.890625 347.507812 266.1875 335.589844 C 273.167969 322.402344 281.96875 310.453125 292.191406 299.519531 C 313.25 277.039062 338.632812 261.6875 368.25 253.199219 C 377.355469 250.605469 386.441406 247.980469 395.796875 246.496094 C 418.308594 243.003906 440.484375 244.460938 461.976562 252.210938 C 493.597656 263.601562 516.726562 284.636719 531.679688 314.710938 C 536.683594 324.746094 540.328125 335.28125 542.421875 346.273438 C 544.828125 358.808594 545.726562 371.5 544.675781 384.253906 C 542.949219 405.253906 537.046875 425.113281 527.628906 443.886719 C 523.273438 452.53125 518.304688 460.78125 512.339844 468.433594 C 511.042969 470.070312 509.9375 471.863281 508.789062 473.621094 C 495.851562 493.789062 479.363281 510.527344 459.6875 524.113281 C 439.957031 537.726562 418.152344 546.007812 394.402344 549.246094 C 374.171875 552.03125 354.285156 550.542969 334.894531 544.121094 C 304.472656 534.027344 281.160156 515.0625 264.851562 487.457031 C 256.851562 473.898438 251.855469 459.289062 248.671875 443.914062 C 246.515625 433.632812 245.839844 423.257812 246.058594 410.566406 M 530.660156 384.066406 C 530.660156 375.667969 530.132812 367.300781 528.6875 358.992188 C 527.730469 353.496094 526.769531 347.9375 525.195312 342.5625 C 523.558594 336.945312 521.457031 331.410156 519.140625 326.015625 C 513.304688 312.367188 505.277344 300.136719 494.960938 289.386719 C 475.722656 269.40625 452.378906 257.457031 425.019531 253.160156 C 412.332031 251.15625 399.605469 251.15625 386.847656 252.851562 C 378.507812 253.960938 370.390625 255.785156 362.578125 259.117188 C 337.839844 269.617188 316.625 284.992188 299.089844 305.378906 C 291.367188 314.367188 284.792969 324.121094 278.890625 334.40625 C 272.996094 344.6875 269.164062 355.871094 265.148438 366.921875 C 261.875 375.941406 260.515625 385.484375 259.339844 394.992188 C 257.828125 407.371094 258.632812 419.726562 260.328125 431.957031 C 262.492188 447.246094 267.550781 461.664062 275.339844 475.039062 C 295.785156 510.179688 326.539062 529.699219 366.65625 534.695312 C 381.449219 536.550781 396.179688 535.496094 410.753906 532.382812 C 425.765625 529.171875 439.878906 523.675781 453.308594 516.292969 C 469.277344 507.523438 483.601562 496.714844 495.859375 483.21875 C 499.9375 478.710938 504.039062 474.199219 507.160156 468.953125 C 513.734375 457.800781 519.019531 446.070312 522.941406 433.75 C 528.160156 417.574219 530.691406 401.023438 530.660156 384.066406 " fill-opacity="1" fill-rule="nonzero"/><path fill="#173e81" d="M 439.835938 311.433594 C 439.25 311.433594 438.632812 311.375 438.078125 311.433594 C 424.300781 312.949219 410.5625 314.457031 396.789062 315.972656 C 383.230469 317.425781 369.671875 318.90625 356.085938 320.261719 C 349.757812 320.910156 343.421875 321.339844 337.09375 321.867188 C 336.414062 321.929688 335.738281 321.957031 335.089844 321.835938 C 334.285156 321.648438 334.070312 320.941406 334.535156 320.261719 C 334.8125 319.894531 335.152344 319.554688 335.523438 319.246094 C 338.210938 316.871094 340.929688 314.546875 343.582031 312.140625 C 344.414062 311.375 345.34375 310.996094 346.484375 310.875 C 361.121094 309.421875 375.757812 307.851562 390.398438 306.554688 C 403.554688 305.410156 416.738281 304.640625 429.925781 303.59375 C 437.644531 302.972656 445.367188 302.136719 453.117188 301.429688 C 454.042969 301.339844 455.003906 301.277344 455.925781 301.339844 C 457.59375 301.457031 457.996094 302.417969 456.976562 303.78125 C 456.667969 304.210938 456.269531 304.582031 455.894531 305.015625 C 444.5625 317.523438 432.675781 329.503906 420.691406 341.394531 C 413.523438 348.496094 406.332031 355.539062 399.164062 362.582031 C 398.796875 362.921875 398.488281 363.351562 398.023438 363.878906 C 401.082031 363.597656 403.890625 363.320312 406.699219 363.167969 C 412.136719 362.859375 417.480469 363.417969 422.789062 364.527344 C 430.078125 366.042969 437.242188 367.828125 443.757812 371.597656 C 462.007812 382.128906 471.550781 397.878906 471.523438 419.027344 C 471.492188 429.5 467.753906 438.886719 461.640625 447.347656 C 458.523438 451.703125 455.003906 455.683594 451.046875 459.296875 C 447.867188 462.230469 444.683594 465.160156 441.566406 468.191406 C 429.152344 480.332031 414.238281 487.800781 397.4375 491.664062 C 382.398438 495.125 367.453125 494.933594 352.664062 490.367188 C 344.167969 487.742188 336.359375 483.722656 330.148438 477.210938 C 323.726562 470.445312 319.894531 462.476562 319.621094 452.96875 C 319.5625 451.273438 319.960938 449.820312 320.886719 448.402344 C 322.957031 445.21875 324.871094 441.976562 326.90625 438.765625 C 327.742188 437.46875 328.730469 437.378906 329.65625 438.488281 C 329.90625 438.796875 329.964844 439.355469 329.964844 439.785156 C 329.65625 450.160156 333.949219 458.585938 341.296875 465.570312 C 345.003906 469.089844 349.449219 471.5625 354.113281 473.660156 C 361.339844 476.902344 368.9375 478.628906 376.78125 479.402344 C 392.929688 481.007812 408.40625 478.199219 423.441406 472.363281 C 429.617188 469.957031 435.515625 466.957031 440.953125 463.15625 C 442.09375 462.355469 443.265625 461.460938 444.105469 460.34375 C 451.765625 450.25 456.980469 439.066406 457.289062 426.222656 C 457.660156 411.339844 452.414062 398.519531 441.046875 388.726562 C 436.136719 384.496094 430.328125 381.503906 424.09375 379.429688 C 414.644531 376.308594 405.007812 374.554688 395.035156 375.140625 C 391.269531 375.359375 387.527344 375.910156 383.761719 376.4375 C 382.960938 376.527344 382.339844 376.558594 381.757812 375.941406 C 381.167969 375.292969 381.046875 374.644531 381.695312 373.996094 C 382.003906 373.65625 382.34375 373.285156 382.683594 372.976562 C 394.296875 362.292969 404.703125 350.464844 414.957031 338.515625 C 422.183594 330.117188 429.996094 322.238281 437.75 314.335938 C 438.550781 313.535156 439.324219 312.699219 440.097656 311.894531 Z M 439.835938 311.433594 " fill-opacity="1" fill-rule="nonzero"/></svg>