<svg xmlns="http://www.w3.org/2000/svg" xmlns:xlink="http://www.w3.org/1999/xlink" width="1080" zoomAndPan="magnify" viewBox="0 0 810 809.999993" height="1080" preserveAspectRatio="xMidYMid meet" version="1.0"><defs><clipPath id="01282ff680"><path d="M 278 271 L 560.890625 271 L 560.890625 567 L 278 567 Z M 278 271 " clip-rule="nonzero"/></clipPath><clipPath id="0b39c0628e"><path d="M 249.011719 243 L 560.890625 243 L 560.890625 562 L 249.011719 562 Z M 249.011719 243 " clip-rule="nonzero"/></clipPath></defs><g clip-path="url(#01282ff680)"><path fill="#13c2b6" d="M 445.84375 271.351562 C 401.992188 273.695312 366.546875 289.40625 339.296875 309.5625 C 196.582031 415.089844 329.734375 648.78125 495.746094 537.808594 C 507.441406 529.996094 568.023438 480.011719 560.300781 369.140625 C 555.308594 297.5 495.394531 268.695312 445.84375 271.351562 " fill-opacity="1" fill-rule="nonzero"/></g><g clip-path="url(#0b39c0628e)"><path fill="#173e81" d="M 249.050781 419.03125 C 249.113281 403.894531 251.523438 390.234375 254.582031 376.574219 C 257.664062 362.722656 263.519531 349.996094 270.039062 337.589844 C 277.015625 324.347656 285.789062 312.292969 295.972656 301.308594 C 312.300781 283.726562 331.132812 269.585938 353.242188 260.171875 C 370.921875 252.652344 389.203125 247.089844 408.261719 244.421875 C 431.433594 241.207031 454.125 243.363281 476.113281 251.71875 C 508.054688 263.867188 531.265625 285.53125 546.398438 316.0625 C 551.539062 326.441406 555.304688 337.339844 557.519531 348.71875 C 560.0625 361.765625 560.957031 374.972656 559.863281 388.25 C 558.066406 410.101562 551.925781 430.769531 542.09375 450.304688 C 537.597656 459.304688 532.386719 467.890625 526.179688 475.886719 C 524.832031 477.589844 523.636719 479.457031 522.484375 481.253906 C 509.019531 502.242188 491.859375 519.660156 471.378906 533.800781 C 450.816406 548.003906 427.988281 556.648438 403.242188 560.023438 C 382.191406 562.886719 361.492188 561.308594 341.308594 554.59375 C 309.75 544.054688 285.511719 524.351562 268.613281 495.683594 C 260.285156 481.605469 254.824219 466.4375 251.867188 450.371094 C 249.175781 435.742188 248.886719 432.273438 249.050781 419.03125 M 545.5 387.957031 C 545.113281 381.980469 544.886719 375.96875 544.304688 369.988281 C 543.503906 361.601562 541.992188 353.277344 539.707031 345.179688 C 536.5625 334.058594 532.121094 323.390625 526.140625 313.457031 C 505.347656 278.96875 475.035156 258.335938 435.285156 251.84375 C 422.082031 249.65625 408.835938 249.726562 395.558594 251.554688 C 388.457031 252.519531 381.421875 253.808594 374.640625 256.371094 C 364.488281 260.234375 354.8125 265.050781 345.648438 270.835938 C 310.550781 293.007812 285.617188 323.351562 271.890625 362.683594 C 270.957031 365.320312 269.671875 367.824219 268.871094 370.460938 C 265.976562 379.8125 264.179688 389.394531 262.984375 399.101562 C 261.378906 412.117188 262.21875 425.101562 264.015625 437.988281 C 266.164062 453.320312 271.175781 467.84375 278.828125 481.347656 C 300.003906 518.757812 332.308594 539.550781 374.726562 544.855469 C 390.121094 546.785156 405.453125 545.65625 420.621094 542.414062 C 436.242188 539.074219 450.933594 533.355469 464.90625 525.671875 C 481.527344 516.546875 496.433594 505.261719 509.160156 491.21875 C 513.757812 486.171875 518.253906 481.0625 521.691406 475.085938 C 526.996094 465.796875 531.523438 456.121094 535.15625 446.0625 C 541.960938 427.261719 545.300781 407.878906 545.5 387.957031 " fill-opacity="1" fill-rule="nonzero"/></g><path fill="#173e81" d="M 340.289062 387.277344 C 340.578125 387.246094 425.878906 380.363281 426.035156 380.332031 C 426.097656 379.851562 426.230469 379.304688 426.230469 378.785156 C 426.292969 360.785156 426.292969 342.789062 426.425781 324.796875 C 426.457031 319.6875 426.8125 314.570312 426.976562 309.429688 C 427.007812 308.53125 427.265625 307.988281 427.972656 307.53125 C 431.410156 305.34375 434.851562 303.132812 438.289062 300.941406 C 438.675781 300.683594 439.160156 300.652344 439.867188 300.421875 C 439.960938 301.515625 440.0625 302.386719 440.09375 303.289062 C 440.417969 316.53125 440.769531 329.769531 440.964844 343.015625 C 441.121094 354.621094 441.058594 366.246094 441.121094 377.851562 C 441.121094 380.003906 441.351562 382.191406 441.320312 384.339844 C 441.195312 392.636719 440.964844 400.890625 440.871094 409.183594 C 440.714844 422.8125 440.582031 436.433594 440.550781 450.09375 C 440.519531 464.648438 440.582031 479.214844 440.675781 493.769531 C 440.675781 494.671875 440.480469 495.210938 439.90625 495.792969 C 436.757812 498.875 433.574219 502 430.429688 505.113281 C 429.910156 505.59375 429.367188 506.175781 428.601562 505.757812 C 427.863281 505.34375 427.375 504.792969 427.375 503.765625 C 427.375 493.125 427.34375 482.523438 427.28125 471.886719 C 427.21875 457.488281 427.15625 443.089844 427.023438 428.691406 C 426.929688 417.4375 426.699219 406.195312 426.574219 394.941406 C 426.542969 391.890625 426.574219 391.890625 423.585938 392.210938 C 404.652344 394.363281 385.757812 396.613281 366.792969 398.574219 C 354.96875 399.832031 343.105469 400.632812 331.28125 401.691406 C 329.835938 401.816406 328.382812 402.238281 326.941406 402.394531 C 326.390625 402.460938 325.714844 402.238281 325.269531 401.949219 C 324.65625 401.535156 324.75 400.859375 325.074219 400.246094 C 326.101562 398.253906 327.066406 396.199219 328.15625 394.234375 C 336.898438 378.363281 345.417969 362.324219 354.542969 346.671875 C 360.90625 335.742188 368.140625 325.328125 375.015625 314.726562 C 375.496094 313.988281 376.167969 313.316406 376.914062 312.796875 C 379.90625 310.710938 382.957031 308.65625 385.976562 306.628906 C 386.746094 306.113281 387.617188 305.085938 388.582031 306.019531 C 389.515625 306.890625 388.738281 307.816406 388.230469 308.65625 C 382.957031 317.269531 377.652344 325.878906 372.417969 334.492188 C 362.101562 351.363281 351.78125 368.273438 341.503906 385.171875 C 341.03125 385.832031 340.742188 386.507812 340.289062 387.277344 " fill-opacity="1" fill-rule="nonzero"/></svg>