<svg xmlns="http://www.w3.org/2000/svg" xmlns:xlink="http://www.w3.org/1999/xlink" width="1080" zoomAndPan="magnify" viewBox="0 0 810 809.999993" height="1080" preserveAspectRatio="xMidYMid meet" version="1.0"><defs><clipPath id="9cde898880"><path d="M 276 273 L 559.363281 273 L 559.363281 566.882812 L 276 566.882812 Z M 276 273 " clip-rule="nonzero"/></clipPath><clipPath id="7ff7a9b63c"><path d="M 250.363281 243.125 L 558 243.125 L 558 557 L 250.363281 557 Z M 250.363281 243.125 " clip-rule="nonzero"/></clipPath></defs><g clip-path="url(#9cde898880)"><path fill="#13c2b6" d="M 441.171875 274.410156 C 403.578125 271.539062 363.558594 282.21875 326.203125 312.148438 C 278.207031 350.617188 259.972656 428.59375 294.179688 492.382812 C 376.773438 646.394531 585.113281 537.027344 557.050781 386.796875 C 540.660156 298.988281 499.570312 278.871094 441.171875 274.410156 " fill-opacity="1" fill-rule="nonzero"/></g><g clip-path="url(#7ff7a9b63c)"><path fill="#173e81" d="M 383.457031 556.765625 C 347.519531 556.324219 316.296875 544.257812 290.460938 518.957031 C 278.332031 507.082031 269.117188 493.183594 262.375 477.605469 C 257.722656 466.90625 254.746094 455.730469 252.496094 444.296875 C 250.308594 433.28125 250.15625 422.164062 250.503906 411.015625 C 250.882812 398.601562 253.253906 386.511719 255.953125 374.414062 C 259.089844 360.257812 265.074219 347.3125 271.90625 334.773438 C 284.128906 312.476562 300.625 293.800781 320.988281 278.542969 C 336.695312 266.761719 354.074219 258.433594 372.789062 252.707031 C 382.257812 249.792969 391.757812 247.039062 401.570312 245.363281 C 425.410156 241.28125 448.871094 242.609375 471.675781 250.742188 C 501.886719 261.542969 524.773438 281.140625 540.320312 309.222656 C 545.230469 318.121094 549.1875 327.398438 551.878906 337.214844 C 556.277344 353.199219 557.921875 369.511719 556.59375 386.070312 C 554.886719 407.699219 548.769531 428.085938 539.054688 447.433594 C 534.585938 456.300781 529.492188 464.757812 523.375 472.605469 C 522.140625 474.1875 521.035156 475.898438 519.960938 477.574219 C 506.664062 498.378906 489.65625 515.660156 469.363281 529.660156 C 449.132812 543.621094 426.746094 552.050781 402.425781 555.433594 C 396.148438 556.324219 389.820312 556.703125 383.457031 556.765625 M 542.46875 385.96875 C 542.089844 380.078125 541.835938 374.15625 541.296875 368.265625 C 540.539062 360.066406 538.984375 351.964844 536.796875 344.007812 C 535.148438 337.964844 532.808594 332.042969 530.332031 326.246094 C 524.382812 312.253906 516.085938 299.714844 505.511719 288.722656 C 485.875 268.359375 462.003906 256.171875 434.144531 251.742188 C 421.132812 249.683594 408.085938 249.652344 395.007812 251.390625 C 386.394531 252.527344 377.96875 254.398438 369.929688 257.816406 C 344.535156 268.617188 322.8125 284.347656 304.832031 305.25 C 296.914062 314.464844 290.175781 324.46875 284.121094 335.011719 C 278.078125 345.554688 274.148438 357.019531 270.03125 368.351562 C 266.675781 377.597656 265.28125 387.382812 264.078125 397.132812 C 262.523438 409.824219 263.351562 422.496094 265.089844 435.035156 C 267.308594 450.710938 272.496094 465.492188 280.480469 479.207031 C 301.445312 515.238281 332.976562 535.25 374.109375 540.375 C 389.277344 542.277344 404.382812 541.195312 419.324219 538.003906 C 434.71875 534.710938 449.1875 529.074219 462.957031 521.507812 C 478.816406 512.800781 493.128906 502.09375 505.449219 488.800781 C 509.980469 483.921875 514.5 479.011719 517.957031 473.285156 C 527.363281 457.484375 534.167969 440.640625 538.1875 422.652344 C 540.949219 410.667969 542.246094 398.386719 542.46875 385.96875 " fill-opacity="1" fill-rule="nonzero"/></g><path fill="#173e81" d="M 363.507812 375.207031 C 364.203125 375.175781 364.867188 375.144531 365.53125 375.082031 C 372.34375 374.292969 379.113281 373.210938 385.925781 372.707031 C 407.042969 371.183594 426.425781 376.511719 443.964844 388.316406 C 449.691406 392.179688 454.507812 397.121094 457.769531 403.289062 C 462.773438 412.757812 463.53125 422.636719 458.945312 432.386719 C 454.671875 441.476562 450.171875 450.53125 443.972656 458.476562 C 432.855469 472.628906 418.167969 480.515625 400.371094 482.664062 C 389.921875 483.933594 379.765625 482.859375 370.039062 478.582031 C 361.898438 474.972656 355.066406 469.746094 350.1875 462.210938 C 346.324219 456.289062 345.246094 449.671875 345.535156 442.738281 C 345.597656 441.375 346.136719 440.046875 346.515625 438.71875 C 347.148438 436.3125 347.8125 433.902344 348.480469 431.496094 C 348.632812 430.957031 348.734375 430.390625 349.019531 429.945312 C 349.246094 429.597656 349.746094 429.21875 350.09375 429.25 C 350.472656 429.25 351.046875 429.65625 351.140625 430.035156 C 351.425781 430.894531 351.488281 431.804688 351.609375 432.695312 C 352.183594 437.828125 353.378906 442.730469 356.265625 447.136719 C 360.949219 454.292969 367.410156 459.328125 375.164062 462.742188 C 382.855469 466.128906 390.996094 467.335938 399.320312 466.792969 C 418.539062 465.558594 434.65625 457.773438 447.800781 443.710938 C 449.035156 442.414062 449.792969 440.960938 450.203125 439.210938 C 453.339844 426.480469 449.507812 415.90625 440.355469 406.976562 C 434.207031 400.960938 426.742188 397.066406 418.855469 393.804688 C 404.097656 387.726562 388.746094 386.207031 373.007812 387.976562 C 368.324219 388.515625 363.636719 389.019531 359.015625 389.847656 C 354.933594 390.574219 352.335938 388.292969 349.800781 385.859375 C 349.167969 385.253906 348.820312 384.117188 348.820312 383.230469 C 348.503906 368.535156 348.246094 353.847656 348.0625 339.152344 C 348.03125 337.25 348.503906 335.316406 348.664062 333.390625 C 348.726562 332.535156 349.136719 332.03125 349.800781 331.550781 C 352.871094 329.273438 355.914062 326.992188 358.921875 324.617188 C 360.222656 323.605469 361.582031 322.941406 363.230469 322.746094 C 369.496094 321.988281 375.707031 320.945312 381.976562 320.496094 C 396.730469 319.453125 411.449219 318.597656 426.207031 317.839844 C 435.707031 317.328125 445.238281 317.113281 454.734375 316.792969 C 455.714844 316.761719 456.820312 316.445312 457.554688 317.582031 C 458.15625 318.566406 458.21875 319.007812 457.300781 319.703125 C 453.628906 322.390625 449.894531 325.082031 446.152344 327.710938 C 445.742188 327.996094 445.140625 328.058594 444.597656 328.058594 C 429.082031 328.089844 413.660156 329.511719 398.238281 330.65625 C 390.167969 331.257812 382.089844 331.636719 374.019531 332.109375 C 371.332031 332.261719 368.640625 332.425781 365.949219 332.648438 C 363.667969 332.84375 363.699219 332.875 363.699219 335.117188 C 363.667969 344.585938 363.605469 354.046875 363.578125 363.484375 C 363.507812 367.289062 363.507812 371.0625 363.507812 375.207031 " fill-opacity="1" fill-rule="nonzero"/></svg>